<svg width="1921" height="1080" viewBox="0 0 1921 1080" fill="none" xmlns="http://www.w3.org/2000/svg">
<g clip-path="url(#clip0_712_2)">
<rect width="1921" height="1080" fill="white"/>
<g clip-path="url(#clip1_712_2)">
<path d="M1921 0H0V1080H1921V0Z" fill="#FCFCFC"/>
<g opacity="0.8">
<path d="M552 1018.74C552.007 1039.11 550.669 1059.46 547.997 1079.65H0V569.89C30.7898 563.513 62.1519 560.305 93.5953 560.319C346.779 560.319 552 765.567 552 1018.74Z" fill="#9BE4EA"/>
<path d="M407.239 1041C407.239 1053.91 406.542 1066.82 405.15 1079.65H0V689.361C17.1899 686.841 34.5407 685.579 51.9142 685.584C248.189 685.584 407.239 844.715 407.239 1041Z" fill="#50C0C9"/>
<path d="M267.055 1079.65H0V839.843C7.44864 839.164 14.9669 838.798 22.6244 838.798C86.8352 838.801 148.467 864.065 194.204 909.132C239.94 954.2 266.108 1015.45 267.055 1079.65Z" fill="#31ACAF"/>
</g>
<path opacity="0.8" d="M1921 0V1253H1563.72C1316.8 1127.85 1351.81 936.487 1428.81 821.939C1489.38 731.912 1533.4 644.104 1558.22 563.687C1605.56 410.488 1511.3 248.561 1355.1 217.807C1281.22 203.221 1183.97 202.487 1055.96 225.964C665.099 297.522 503.484 104.645 446 0H1921Z" fill="#B3E7F2"/>
</g>
</g>
<defs>
<clipPath id="clip0_712_2">
<rect width="1921" height="1080" fill="white"/>
</clipPath>
<clipPath id="clip1_712_2">
<rect width="1921" height="1080" fill="white"/>
</clipPath>
</defs>
</svg>
