<svg width="1440" height="1024" viewBox="0 0 1440 1024" fill="none" xmlns="http://www.w3.org/2000/svg">
<g clip-path="url(#clip0_712_2)">
<rect width="1440" height="1024" fill="white"/>
<g clip-path="url(#clip1_712_2)">
<path d="M1921 0H0V1080H1921V0Z" fill="#FCFCFC"/>
<g opacity="0.8">
<path d="M497.098 973.148C497.104 991.492 495.9 1009.82 493.493 1028H0V568.938C27.7274 563.195 55.9702 560.307 84.2863 560.319C312.289 560.319 497.098 745.153 497.098 973.148Z" fill="#9BE4EA"/>
<path d="M366.735 993.193C366.735 1004.82 366.107 1016.44 364.854 1028H0V676.526C15.4802 674.257 31.1053 673.12 46.7508 673.125C223.504 673.125 366.735 816.429 366.735 993.193Z" fill="#50C0C9"/>
<path d="M240.493 1028H0V812.041C6.7078 811.43 13.4783 811.101 20.3741 811.101C78.1985 811.103 133.701 833.854 174.888 874.439C216.075 915.024 239.641 970.184 240.493 1028Z" fill="#31ACAF"/>
</g>
<path opacity="0.8" d="M1444 0V1023H1152.37C950.807 920.82 979.384 764.586 1042.24 671.064C1091.68 597.562 1127.61 525.873 1147.88 460.217C1186.51 335.139 1109.57 202.935 982.075 177.826C921.763 165.918 842.386 165.318 737.896 184.486C418.844 242.909 286.923 85.4365 240 0H1444Z" fill="#B3E7F2"/>
</g>
</g>
<defs>
<clipPath id="clip0_712_2">
<rect width="1440" height="1024" fill="white"/>
</clipPath>
<clipPath id="clip1_712_2">
<rect width="1921" height="1080" fill="white"/>
</clipPath>
</defs>
</svg>
